<svg width="16" height="12" viewBox="0 0 16 12" fill="none" xmlns="http://www.w3.org/2000/svg">
<g clip-path="url(#clip0_308_9001)">
<rect width="16" height="12" fill="#E1E7FE"/>
<g clip-path="url(#clip1_308_9001)">
<path d="M15.5556 -1H0.444526C-0.537314 -1 -1.33325 -0.164265 -1.33325 0.866667V11.1333C-1.33325 12.1643 -0.537314 13 0.444526 13H15.5556C16.5375 13 17.3334 12.1643 17.3334 11.1333V0.866667C17.3334 -0.164265 16.5375 -1 15.5556 -1Z" fill="#22438B"/>
<path fill-rule="evenodd" clip-rule="evenodd" d="M1.33336 -0.0666504L-0.467529 -0.0423837L-0.444418 1.80002L14.6507 12.0928L16.4614 12.0583L16.4276 10.2271L1.33336 -0.0666504Z" fill="white"/>
<path fill-rule="evenodd" clip-rule="evenodd" d="M0.444553 -0.0666504L-0.444336 0.866683L15.5557 12.0667L16.4446 11.1334L0.444553 -0.0666504Z" fill="#C7152A"/>
<path fill-rule="evenodd" clip-rule="evenodd" d="M14.6667 -0.0666504H16.4444V1.80002C16.4444 1.80002 5.99999 8.70295 1.34932 12.0928C1.29332 12.1339 -0.426675 12.0956 -0.426675 12.0956L-0.564453 10.3214L14.6667 -0.0666504Z" fill="white"/>
<path fill-rule="evenodd" clip-rule="evenodd" d="M15.5939 -0.0927734L16.4446 0.866693L0.444553 12.0667L-0.444336 11.1334L15.5939 -0.0927734Z" fill="#C7152A"/>
<path fill-rule="evenodd" clip-rule="evenodd" d="M5.77789 -0.0666504H10.2223V3.66668H16.4446V8.33335H10.2223V12.0667H5.77789V8.33335H-0.444336V3.66668H5.77789V-0.0666504Z" fill="white"/>
<path fill-rule="evenodd" clip-rule="evenodd" d="M6.66678 -0.0666504H9.33344V4.60002H16.4446V7.40002H9.33344V12.0667H6.66678V7.40002H-0.444336V4.60002H6.66678V-0.0666504Z" fill="#C7152A"/>
<path d="M15.5555 -0.533325H0.444417C-0.291962 -0.533325 -0.888916 0.0934762 -0.888916 0.866675V11.1333C-0.888916 11.9065 -0.291962 12.5333 0.444417 12.5333H15.5555C16.2919 12.5333 16.8889 11.9065 16.8889 11.1333V0.866675C16.8889 0.0934762 16.2919 -0.533325 15.5555 -0.533325Z" stroke="black" stroke-opacity="0.1"/>
</g>
</g>
<defs>
<clipPath id="clip0_308_9001">
<rect width="16" height="12" fill="white"/>
</clipPath>
<clipPath id="clip1_308_9001">
<rect width="18.6667" height="14" fill="white" transform="translate(-1.33325 -1)"/>
</clipPath>
</defs>
</svg>
