<svg width="16" height="16" viewBox="0 0 16 16" fill="none" xmlns="http://www.w3.org/2000/svg">
<rect width="16" height="16" rx="8" fill="#232339"/>
<path d="M10.9157 11.3333C7.36086 11.3384 4.66295 8.60813 4.66675 5.08438C4.66675 4.85427 4.8533 4.66667 5.08342 4.66667H6.18315C6.38964 4.66667 6.56505 4.81839 6.59537 5.02264C6.66804 5.51217 6.81057 5.98874 7.01862 6.4378L7.06143 6.53022C7.12097 6.65872 7.08061 6.8114 6.96536 6.8937C6.62479 7.13692 6.49463 7.62649 6.75995 8.00849C7.09291 8.48785 7.5126 8.90746 7.99186 9.24026C8.37384 9.50551 8.86333 9.37537 9.10654 9.03486C9.1889 8.91955 9.34167 8.87917 9.47025 8.93873L9.56224 8.98135C10.0113 9.18938 10.4879 9.33191 10.9775 9.40457C11.1818 9.43488 11.3334 9.61029 11.3334 9.81678V10.9167C11.3334 11.1468 11.1464 11.3333 10.9163 11.3333L10.9157 11.3333Z" fill="#E2E6EE"/>
</svg>
