<svg width="16" height="16" viewBox="0 0 16 16" fill="none" xmlns="http://www.w3.org/2000/svg">
<rect width="16" height="16" rx="8" fill="#232339"/>
<path d="M7.99992 11.75C7.47364 11.3011 6.98583 10.809 6.54159 10.2787C5.87492 9.48249 5.08325 8.29666 5.08325 7.16666C5.08266 5.98647 5.79336 4.92224 6.8837 4.47057C7.97404 4.01891 9.22911 4.26884 10.0633 5.10374C10.6118 5.64983 10.9191 6.39265 10.9166 7.16666C10.9166 8.29666 10.1249 9.48249 9.45825 10.2787C9.01401 10.809 8.5262 11.3011 7.99992 11.75ZM7.99992 5.91666C7.55334 5.91666 7.14068 6.15491 6.91739 6.54166C6.6941 6.92841 6.6941 7.40491 6.91739 7.79166C7.14068 8.17841 7.55334 8.41666 7.99992 8.41666C8.69028 8.41666 9.24992 7.85701 9.24992 7.16666C9.24992 6.4763 8.69028 5.91666 7.99992 5.91666Z" fill="#D9DFE8"/>
</svg>
