<svg width="12" height="12" viewBox="0 0 12 12" fill="none" xmlns="http://www.w3.org/2000/svg">
<rect width="12" height="12" fill="#2A337E"/>
<path d="M4.89529 8.66719C4.26336 8.66719 3.69366 8.28654 3.45179 7.70273C3.20992 7.11892 3.34352 6.44691 3.79029 6L4.45341 5.33687L4.89529 5.77875L4.23248 6.44156C3.99562 6.67842 3.90312 7.02364 3.98981 7.34719C4.07651 7.67075 4.32923 7.92347 4.65278 8.01016C4.97633 8.09686 5.32156 8.00436 5.55841 7.7675L6.22123 7.10469L6.6631 7.54687L6.00029 8.20969C5.70781 8.5036 5.30993 8.66834 4.89529 8.66719ZM5.11623 7.32562L4.67435 6.88375L6.88404 4.67406L7.32591 5.11594L5.11654 7.32531L5.11623 7.32562ZM7.54716 6.66281L7.10498 6.22094L7.76779 5.55812C8.00787 5.32198 8.10285 4.97521 8.01661 4.64968C7.93038 4.32415 7.67617 4.06989 7.35067 3.98358C7.02516 3.89726 6.67837 3.99216 6.44216 4.23219L5.77904 4.895L5.33716 4.45312L6.00029 3.79C6.61125 3.18436 7.59684 3.18652 8.20515 3.79483C8.81345 4.40313 8.81561 5.38872 8.20998 5.99969L7.54716 6.6625V6.66281Z" fill="#E1E7FE"/>
</svg>
